<mxfile host="65bd71144e">
    <diagram id="VP3tqLTv26jaMjrZ_J4n" name="Page-1">
        <mxGraphModel dx="745" dy="777" grid="1" gridSize="10" guides="1" tooltips="1" connect="1" arrows="1" fold="1" page="1" pageScale="1" pageWidth="850" pageHeight="1100" math="0" shadow="0">
            <root>
                <mxCell id="0"/>
                <mxCell id="1" parent="0"/>
                <mxCell id="2" value="fs - 文件服务" style="rounded=0;whiteSpace=wrap;html=1;" parent="1" vertex="1">
                    <mxGeometry x="380" y="270" width="120" height="30" as="geometry"/>
                </mxCell>
                <mxCell id="3" value="pkg - 包管理服务" style="rounded=0;whiteSpace=wrap;html=1;" parent="1" vertex="1">
                    <mxGeometry x="380" y="330" width="120" height="30" as="geometry"/>
                </mxCell>
                <mxCell id="4" value="env - 环境服务" style="rounded=0;whiteSpace=wrap;html=1;" parent="1" vertex="1">
                    <mxGeometry x="380" y="390" width="120" height="30" as="geometry"/>
                </mxCell>
                <mxCell id="5" value="inquire - 问答服务" style="rounded=0;whiteSpace=wrap;html=1;" parent="1" vertex="1">
                    <mxGeometry x="380" y="450" width="120" height="30" as="geometry"/>
                </mxCell>
                <mxCell id="6" value="脚手架核心服务" style="rounded=0;whiteSpace=wrap;html=1;" parent="1" vertex="1">
                    <mxGeometry x="170" y="450" width="110" height="30" as="geometry"/>
                </mxCell>
                <mxCell id="8" value="storage - 存储服务" style="rounded=0;whiteSpace=wrap;html=1;" parent="1" vertex="1">
                    <mxGeometry x="380" y="510" width="120" height="30" as="geometry"/>
                </mxCell>
                <mxCell id="9" value="cmd - 命令行服务" style="rounded=0;whiteSpace=wrap;html=1;" parent="1" vertex="1">
                    <mxGeometry x="380" y="570" width="120" height="30" as="geometry"/>
                </mxCell>
                <mxCell id="10" value="user - 用户f服务" style="rounded=0;whiteSpace=wrap;html=1;" parent="1" vertex="1">
                    <mxGeometry x="380" y="630" width="120" height="30" as="geometry"/>
                </mxCell>
            </root>
        </mxGraphModel>
    </diagram>
</mxfile>
